<svg width="181" height="179" viewBox="0 0 181 179" fill="none" xmlns="http://www.w3.org/2000/svg">
<path d="M42.788 43.5675C42.788 41.9129 44.1339 40.5785 45.8028 40.5785H180.712V0.12085H9.1954C4.51181 0.12085 0.689575 3.91041 0.689575 8.55397V77.727C0.689575 82.3705 4.51181 86.1601 9.1954 86.1601H136.352C138.021 86.1601 139.367 87.4945 139.367 89.1491C139.367 90.8037 138.021 92.138 136.352 92.138H0.689575V132.329H72.3969V138.147H0.743405V178.604H180.712V138.147H109.004V132.329H172.206C176.889 132.329 180.712 128.539 180.712 123.896V54.9896C180.712 50.346 176.889 46.5564 172.206 46.5564H45.7489C44.1339 46.5564 42.788 45.2221 42.788 43.5675Z" fill="#E6E6E6"/>
</svg>
